<mxfile host="app.diagrams.net" modified="2021-12-21T06:43:07.588Z" agent="5.0 (Windows)" etag="e5bUOiplxWGgb_24Fea0" version="15.9.6" type="github">
  <diagram id="k7pnu1gt9cMkeecX9K7F" name="Page-1">
    <mxGraphModel dx="1038" dy="536" grid="1" gridSize="10" guides="1" tooltips="1" connect="1" arrows="1" fold="1" page="1" pageScale="1" pageWidth="850" pageHeight="1100" math="0" shadow="0">
      <root>
        <mxCell id="0" />
        <mxCell id="1" parent="0" />
        <mxCell id="HKMv9AIlQRzUU2GLu_Qs-2" value="" style="html=1;verticalAlign=bottom;startArrow=circle;startFill=1;endArrow=open;startSize=6;endSize=8;rounded=0;entryX=0;entryY=0.5;entryDx=0;entryDy=0;" parent="1" target="HKMv9AIlQRzUU2GLu_Qs-3" edge="1">
          <mxGeometry x="1" y="121" width="80" relative="1" as="geometry">
            <mxPoint x="10" y="590" as="sourcePoint" />
            <mxPoint x="150" y="590" as="targetPoint" />
            <mxPoint x="50" y="11" as="offset" />
          </mxGeometry>
        </mxCell>
        <mxCell id="HKMv9AIlQRzUU2GLu_Qs-6" style="edgeStyle=orthogonalEdgeStyle;rounded=0;orthogonalLoop=1;jettySize=auto;html=1;" parent="1" source="HKMv9AIlQRzUU2GLu_Qs-3" edge="1">
          <mxGeometry relative="1" as="geometry">
            <mxPoint x="420" y="590" as="targetPoint" />
          </mxGeometry>
        </mxCell>
        <mxCell id="HKMv9AIlQRzUU2GLu_Qs-3" value="No Food Item Informarion" style="rounded=1;whiteSpace=wrap;html=1;" parent="1" vertex="1">
          <mxGeometry x="160" y="560" width="120" height="60" as="geometry" />
        </mxCell>
        <mxCell id="HKMv9AIlQRzUU2GLu_Qs-5" value="onTabClick()" style="text;html=1;strokeColor=none;fillColor=none;align=center;verticalAlign=middle;whiteSpace=wrap;rounded=0;" parent="1" vertex="1">
          <mxGeometry x="50" y="560" width="60" height="30" as="geometry" />
        </mxCell>
        <mxCell id="HKMv9AIlQRzUU2GLu_Qs-7" value="onDropDownClick()" style="text;html=1;strokeColor=none;fillColor=none;align=center;verticalAlign=middle;whiteSpace=wrap;rounded=0;" parent="1" vertex="1">
          <mxGeometry x="310" y="560" width="60" height="30" as="geometry" />
        </mxCell>
        <mxCell id="HKMv9AIlQRzUU2GLu_Qs-9" style="edgeStyle=orthogonalEdgeStyle;rounded=0;orthogonalLoop=1;jettySize=auto;html=1;" parent="1" source="HKMv9AIlQRzUU2GLu_Qs-8" edge="1">
          <mxGeometry relative="1" as="geometry">
            <mxPoint x="630" y="590" as="targetPoint" />
          </mxGeometry>
        </mxCell>
        <mxCell id="HKMv9AIlQRzUU2GLu_Qs-8" value="Waiting for Food Choice" style="rounded=1;whiteSpace=wrap;html=1;" parent="1" vertex="1">
          <mxGeometry x="420" y="560" width="120" height="60" as="geometry" />
        </mxCell>
        <mxCell id="HKMv9AIlQRzUU2GLu_Qs-10" value="addFood()" style="text;html=1;strokeColor=none;fillColor=none;align=center;verticalAlign=middle;whiteSpace=wrap;rounded=0;" parent="1" vertex="1">
          <mxGeometry x="560" y="560" width="60" height="30" as="geometry" />
        </mxCell>
        <mxCell id="HKMv9AIlQRzUU2GLu_Qs-12" style="edgeStyle=orthogonalEdgeStyle;rounded=0;orthogonalLoop=1;jettySize=auto;html=1;" parent="1" source="HKMv9AIlQRzUU2GLu_Qs-11" edge="1">
          <mxGeometry relative="1" as="geometry">
            <mxPoint x="830" y="590" as="targetPoint" />
          </mxGeometry>
        </mxCell>
        <mxCell id="HKMv9AIlQRzUU2GLu_Qs-11" value="Newly Added" style="rounded=1;whiteSpace=wrap;html=1;" parent="1" vertex="1">
          <mxGeometry x="630" y="560" width="120" height="60" as="geometry" />
        </mxCell>
        <mxCell id="HKMv9AIlQRzUU2GLu_Qs-13" value="submitClick()" style="text;html=1;strokeColor=none;fillColor=none;align=center;verticalAlign=middle;whiteSpace=wrap;rounded=0;" parent="1" vertex="1">
          <mxGeometry x="760" y="560" width="60" height="30" as="geometry" />
        </mxCell>
        <mxCell id="4Vd0CAtN1U7yaF9VwkJX-1" value="" style="ellipse;html=1;shape=endState;fillColor=#000000;strokeColor=#ff0000;" vertex="1" parent="1">
          <mxGeometry x="990" y="575" width="30" height="30" as="geometry" />
        </mxCell>
        <mxCell id="4Vd0CAtN1U7yaF9VwkJX-3" style="edgeStyle=orthogonalEdgeStyle;rounded=0;orthogonalLoop=1;jettySize=auto;html=1;exitX=1;exitY=0.5;exitDx=0;exitDy=0;" edge="1" parent="1" source="4Vd0CAtN1U7yaF9VwkJX-2">
          <mxGeometry relative="1" as="geometry">
            <mxPoint x="990" y="590" as="targetPoint" />
          </mxGeometry>
        </mxCell>
        <mxCell id="4Vd0CAtN1U7yaF9VwkJX-2" value="Food Choice Saved" style="rounded=1;whiteSpace=wrap;html=1;" vertex="1" parent="1">
          <mxGeometry x="830" y="560" width="120" height="60" as="geometry" />
        </mxCell>
      </root>
    </mxGraphModel>
  </diagram>
</mxfile>
